<?xml version="1.0" encoding="utf-8"?>
<!-- Generator: Adobe Illustrator 20.0.0, SVG Export Plug-In . SVG Version: 6.00 Build 0)  -->
<svg version="1.1" id="Layer_1" xmlns="http://www.w3.org/2000/svg" xmlns:xlink="http://www.w3.org/1999/xlink" x="0px" y="0px"
	 viewBox="0 0 150 150" style="enable-background:new 0 0 150 150;" xml:space="preserve">
<style type="text/css">
	.st0{fill:#BBBBBB;}
</style>
<g>
	<path class="st0" d="M75.1,1.1c-40.5,0-73.5,33-73.5,73.5s33,73.5,73.5,73.5s73.5-33,73.5-73.5S115.6,1.1,75.1,1.1z M75.1,140.6
		c-36.4,0-66-29.6-66-66s29.6-66,66-66s66,29.6,66,66S111.4,140.6,75.1,140.6z"/>
	<g>
		<g>
			<path class="st0" d="M33,97.8h19.2c1.6,0,2.9-1.3,2.9-2.9v-1L89,116.4c0.5,0.4,1.1,0.5,1.6,0.5c0.5,0,0.9-0.1,1.4-0.4
				c0.9-0.5,1.6-1.5,1.6-2.6V37.3c0-1.1-0.6-2.1-1.6-2.6c-0.9-0.5-2.1-0.4-3,0.1L55.1,57.5v-1c0-1.6-1.3-2.9-2.9-2.9H33
				c-1.6,0-2.9,1.3-2.9,2.9v38.4C30.1,96.4,31.4,97.8,33,97.8L33,97.8z M55.1,64.4l32.6-21.7v65.9L55.1,86.9V64.4z M35.9,59.4h13.4
				v32.6H35.9V59.4z M35.9,59.4"/>
			<path class="st0" d="M109.8,53.5c-1.6,0-2.9,1.3-2.9,2.9v38.4c0,1.6,1.3,2.9,2.9,2.9c1.6,0,2.9-1.3,2.9-2.9V56.5
				C112.7,54.9,111.4,53.5,109.8,53.5L109.8,53.5z M109.8,53.5"/>
		</g>
	</g>
</g>
</svg>
