<?xml version="1.0" encoding="utf-8"?>
<!-- Generator: Adobe Illustrator 20.0.0, SVG Export Plug-In . SVG Version: 6.00 Build 0)  -->
<svg version="1.1" id="Layer_1" xmlns="http://www.w3.org/2000/svg" xmlns:xlink="http://www.w3.org/1999/xlink" x="0px" y="0px"
	 viewBox="0 0 150 150" style="enable-background:new 0 0 150 150;" xml:space="preserve">
<style type="text/css">
	.st0{fill:#BBBBBB;}
</style>
<g>
	<path class="st0" d="M74.9,2.4C34.5,2.4,1.7,35.2,1.7,75.6s32.8,73.2,73.2,73.2s73.2-32.8,73.2-73.2S115.3,2.4,74.9,2.4z
		 M74.9,141.3c-36.2,0-65.7-29.5-65.7-65.7S38.7,9.9,74.9,9.9s65.7,29.5,65.7,65.7S111.1,141.3,74.9,141.3z"/>
	<g>
		<g>
			<path class="st0" d="M56.1,67.9l-15.9,16c-4.1,4.1-4.1,10.7,0,14.9l11.1,11.1c2,2,4.6,3.1,7.5,3.1c2.8,0,5.5-1.1,7.5-3.1l15.8-16
				c2-2,3.1-4.6,3.1-7.5c0-0.1,0-0.2-0.1-0.3c0.1,0,0.2,0.1,0.3,0.1c2.8,0,5.5-1.1,7.5-3.1l16-16c4.1-4.1,4.1-10.7,0-14.9L97.8,41.1
				c-2-1.9-4.6-3-7.5-3c-2.8,0-5.4,1.1-7.4,3.1L67,57.1c-2,2-3.1,4.6-3.1,7.5c0,0.1,0,0.2,0.1,0.3c-0.1,0-0.2-0.1-0.3-0.1
				C60.8,64.8,58.1,65.9,56.1,67.9L56.1,67.9z M71,61.2l16-16c0.9-0.9,2.1-1.4,3.4-1.4c1.3,0,2.5,0.5,3.4,1.4l11.1,11.1
				c1.9,1.9,1.9,4.9,0,6.8l-16,16c-1.8,1.8-5,1.8-6.8,0l-3.5-3.5l3.2-3.2c1.1-1.1,1.1-3,0-4.1c-1.1-1.1-3-1.1-4.1,0l-3.2,3.2
				L71,67.9c-0.9-0.9-1.4-2.1-1.4-3.4C69.6,63.2,70.1,62.1,71,61.2L71,61.2z M67,72l3.5,3.5l-3.2,3.2c-1.1,1.1-1.1,3,0,4.1
				c0.6,0.6,1.3,0.8,2,0.8c0.7,0,1.5-0.3,2-0.8l3.2-3.2l3.5,3.5c0.9,0.9,1.4,2.1,1.4,3.4c0,1.3-0.5,2.5-1.4,3.4l-16,16
				c-1.8,1.8-5,1.8-6.8,0L44.2,94.7c-1.9-1.9-1.9-4.9,0-6.8l16-16c0.9-0.9,2.1-1.4,3.4-1.4C64.8,70.5,66.1,71.1,67,72L67,72z M67,72
				"/>
		</g>
	</g>
</g>
</svg>
