<?xml version="1.0" encoding="utf-8"?>
<!-- Generator: Adobe Illustrator 20.0.0, SVG Export Plug-In . SVG Version: 6.00 Build 0)  -->
<svg version="1.1" id="Layer_1" xmlns="http://www.w3.org/2000/svg" xmlns:xlink="http://www.w3.org/1999/xlink" x="0px" y="0px"
	 viewBox="0 0 150 150" style="enable-background:new 0 0 150 150;" xml:space="preserve">
<style type="text/css">
	.st0{fill:#BBBBBB;}
</style>
<g>
	<path class="st0" d="M75.6,2.6c-40.3,0-73,32.8-73,73s32.8,73,73,73s73-32.8,73-73S115.9,2.6,75.6,2.6z M75.6,141.1
		c-36.1,0-65.5-29.4-65.5-65.5s29.4-65.5,65.5-65.5s65.5,29.4,65.5,65.5S111.7,141.1,75.6,141.1z"/>
	<g>
		<path class="st0" d="M54.7,68.8h41.8c1.6,0,2.9-1.3,2.9-2.9c0-1.6-1.3-2.9-2.9-2.9H54.7c-1.6,0-2.9,1.3-2.9,2.9
			C51.8,67.5,53.1,68.8,54.7,68.8L54.7,68.8z M54.7,68.8"/>
		<g>
			<path class="st0" d="M54.7,82.9h41.8c1.6,0,2.9-1.3,2.9-2.9c0-1.6-1.3-2.9-2.9-2.9H54.7c-1.6,0-2.9,1.3-2.9,2.9
				C51.8,81.6,53.1,82.9,54.7,82.9L54.7,82.9z M54.7,82.9"/>
			<path class="st0" d="M37.3,101.7h9.4v9.6c0,1.1,0.6,2.1,1.6,2.6c0.4,0.2,0.9,0.3,1.3,0.3c0.6,0,1.3-0.2,1.8-0.6L67,101.7h47
				c1.6,0,2.9-1.3,2.9-2.9V47.1c0-1.6-1.3-2.9-2.9-2.9H37.3c-1.6,0-2.9,1.3-2.9,2.9v51.6C34.4,100.4,35.8,101.7,37.3,101.7
				L37.3,101.7z M40.2,50h70.7v45.8H66c-0.6,0-1.3,0.2-1.8,0.6l-11.7,8.9v-6.6c0-1.6-1.3-2.9-2.9-2.9h-9.4V50z M40.2,50"/>
		</g>
	</g>
</g>
</svg>
