<?xml version="1.0" encoding="utf-8"?>
<!-- Generator: Adobe Illustrator 20.0.0, SVG Export Plug-In . SVG Version: 6.00 Build 0)  -->
<svg version="1.1" id="Layer_1" xmlns="http://www.w3.org/2000/svg" xmlns:xlink="http://www.w3.org/1999/xlink" x="0px" y="0px"
	 viewBox="0 0 150 150" style="enable-background:new 0 0 150 150;" xml:space="preserve">
<style type="text/css">
	.st0{fill:#BBBBBB;}
</style>
<g>
	<path class="st0" d="M75.3,2.3C34.8,2.3,1.9,35.2,1.9,75.6s32.9,73.3,73.3,73.3s73.3-32.9,73.3-73.3S115.7,2.3,75.3,2.3z
		 M75.3,141.4c-36.3,0-65.8-29.5-65.8-65.8S39,9.8,75.3,9.8S141,39.3,141,75.6S111.5,141.4,75.3,141.4z"/>
	<g>
		<path class="st0" d="M41.7,114.2H104c1.6,0,2.8-1.2,2.8-2.8V38.1c0-1.6-1.2-2.8-2.8-2.8H57.3c-0.2,0-0.5,0-0.7,0.1
			c-0.1,0-0.1,0.1-0.1,0.1c-0.2,0.1-0.3,0.1-0.5,0.2c-0.1,0.1-0.1,0.1-0.2,0.1c-0.2,0.1-0.4,0.3-0.5,0.5L39.6,54.6
			c-0.2,0.2-0.3,0.5-0.5,0.8c-0.1,0.1-0.1,0.2-0.1,0.3C39,55.8,39,56,38.9,56.2v55.1C38.9,113,40.2,114.2,41.7,114.2L41.7,114.2z
			 M54.5,45.7v8h-6.8L54.5,45.7z M44.5,59.2h12.8c1.6,0,2.8-1.2,2.8-2.8V40.9h41.1v67.8H44.5V59.2z M44.5,59.2"/>
		<path class="st0" d="M92.9,65.3H52.8c-1.6,0-2.8,1.2-2.8,2.8c0,1.6,1.2,2.8,2.8,2.8h40.1c1.6,0,2.8-1.2,2.8-2.8
			C95.7,66.5,94.5,65.3,92.9,65.3L92.9,65.3z M92.9,65.3"/>
		<path class="st0" d="M92.9,78.7H52.8c-1.6,0-2.8,1.2-2.8,2.8c0,1.6,1.2,2.8,2.8,2.8h40.1c1.6,0,2.8-1.2,2.8-2.8
			C95.7,80,94.5,78.7,92.9,78.7L92.9,78.7z M92.9,78.7"/>
	</g>
</g>
</svg>
