<?xml version="1.0" encoding="utf-8"?>
<!-- Generator: Adobe Illustrator 20.0.0, SVG Export Plug-In . SVG Version: 6.00 Build 0)  -->
<svg version="1.1" id="Layer_1" xmlns="http://www.w3.org/2000/svg" xmlns:xlink="http://www.w3.org/1999/xlink" x="0px" y="0px"
	 viewBox="0 0 150 150" style="enable-background:new 0 0 150 150;" xml:space="preserve">
<style type="text/css">
	.st0{fill:#BBBBBB;}
</style>
<g>
	<path class="st0" d="M75.4,2.6c-40.3,0-73,32.7-73,73s32.7,73,73,73s73-32.7,73-73S115.7,2.6,75.4,2.6z M75.4,141.1
		c-36.1,0-65.5-29.4-65.5-65.5s29.4-65.5,65.5-65.5s65.5,29.4,65.5,65.5S111.5,141.1,75.4,141.1z"/>
	<g>
		<g>
			<path class="st0" d="M98.5,46.1H32.8c-1.7,0-3.1,1.4-3.1,3.1v51.2c0,1.7,1.4,3.1,3.1,3.1h65.7c1.7,0,3.1-1.4,3.1-3.1V85.7L113,97
				c0.6,0.6,1.4,0.9,2.2,0.9c0.4,0,0.8-0.1,1.2-0.2c1.1-0.5,1.9-1.6,1.9-2.9v-40c0-1.2-0.8-2.4-1.9-2.9c-1.1-0.5-2.5-0.2-3.4,0.7
				l-11.4,11.4V49.2C101.6,47.5,100.2,46.1,98.5,46.1L98.5,46.1z M95.4,71.5v25.9H35.9V52.3h59.5V71.5z M112.1,62.3v25.1L101.6,77
				v-4.1L112.1,62.3z M112.1,62.3"/>
		</g>
	</g>
</g>
</svg>
